<?xml version="1.0" encoding="UTF-8" standalone="no"?>
<svg
   xmlns:dc="http://purl.org/dc/elements/1.1/"
   xmlns:cc="http://creativecommons.org/ns#"
   xmlns:rdf="http://www.w3.org/1999/02/22-rdf-syntax-ns#"
   xmlns:svg="http://www.w3.org/2000/svg"
   xmlns="http://www.w3.org/2000/svg"
   xmlns:sodipodi="http://sodipodi.sourceforge.net/DTD/sodipodi-0.dtd"
   xmlns:inkscape="http://www.inkscape.org/namespaces/inkscape"
   version="1.1"
   id="svg2"
   width="992.5874"
   height="336.82559"
   viewBox="0 0 992.5874 336.82559"
   sodipodi:docname="Integral.svg"
   inkscape:version="1.0.2 (e86c870879, 2021-01-15)">
  <metadata
     id="metadata8">
    <rdf:RDF>
      <cc:Work
         rdf:about="">
        <dc:format>image/svg+xml</dc:format>
        <dc:type
           rdf:resource="http://purl.org/dc/dcmitype/StillImage" />
        <dc:title></dc:title>
      </cc:Work>
    </rdf:RDF>
  </metadata>
  <defs
     id="defs6" />
  <sodipodi:namedview
     pagecolor="#ffffff"
     bordercolor="#666666"
     borderopacity="1"
     objecttolerance="10"
     gridtolerance="10"
     guidetolerance="10"
     inkscape:pageopacity="0"
     inkscape:pageshadow="2"
     inkscape:window-width="1366"
     inkscape:window-height="711"
     id="namedview4"
     showgrid="false"
     inkscape:zoom="0.52228682"
     inkscape:cx="37.01234"
     inkscape:cy="502.12894"
     inkscape:window-x="0"
     inkscape:window-y="0"
     inkscape:window-maximized="1"
     inkscape:current-layer="g10" />
  <g
     inkscape:groupmode="layer"
     inkscape:label="Image"
     id="g10"
     transform="translate(-478.98766,311.62894)">
    <path
       style="fill:#000000"
       d="m 499.72964,22.670228 c -2.64356,-2.36202 -3.35634,-3.86063 -3.74119,-7.86583 -0.92674,-9.6448403 4.01094,-19.4941503 11.75292,-23.4438203 3.28362,-1.6751697 5.55027,-2.0105197 12.01199,-1.7771597 6.28673,0.22704 7.96404,0.6036497 7.96181,1.7876397 -0.002,0.825 -1.12539,7.77376999 -2.49739,15.44172 -2.46736,13.7897003 -2.38552,15.4788903 0.75306,15.5429703 0.4125,0.008 0.75,0.46531 0.75,1.01531 0,0.55 -2.475,1 -5.5,1 -4.8937,0 -5.5,-0.22798 -5.5,-2.06809 v -2.0681 l -2.9905,2.12942 c -1.64478,1.17119 -4.508,2.37568 -6.36272,2.67666 -2.75443,0.44699 -3.97051,0.0127 -6.63798,-2.37072 z m 11.1761,-3.26498 c 5.03069,-2.09871 5.85439,-3.60527 7.95599,-14.5516803 2.25627,-11.75202 2.07199,-12.43658 -3.3561,-12.4672 -8.007,-0.0451 -15.83933,16.31303 -11.63509,24.3004303 1.94867,3.70216 3.36517,4.24951 7.0352,2.71845 z M 718.91231,2.1210577 c -1.64733,-3.9875 -6.00702,-14.6749997 -9.68819,-23.7499997 -3.68116,-9.075 -7.0109,-16.83807 -7.39942,-17.25127 -0.38852,-0.4132 -2.54663,0.60205 -4.7958,2.25611 -3.44919,2.53656 -4.18479,2.75878 -4.69873,1.41948 -0.33513,-0.87334 -0.60933,-1.73349 -0.60933,-1.91145 0,-0.62964 14.08828,-10.7578 14.44998,-10.38818 0.202,0.20642 4.43674,10.50031 9.41053,22.87531 4.97379,12.375 9.06491,22.2026397 9.09137,21.8391897 0.0564,-0.77413 24.63917,-101.5581977 26.12072,-107.0891877 0.57979,-2.1645 1.62239,-3.75 2.46594,-3.75 0.8038,0 1.47143,0.3375 1.48362,0.75 0.0122,0.4125 -6.61962,28.087498 -14.73735,61.499998 -12.19093,50.1777297 -15.05003,60.7499997 -16.42884,60.7499997 -1.13019,0 -2.63668,-2.34152 -4.6645,-7.25 z m -101.53628,-0.20865 c -8.3852,-2.98973 -12.04776,-8.88768 -11.45311,-18.4433097 0.93588,-15.03867 12.07177,-28.61398 29.0167,-35.37306 4.59973,-1.83477 8.12011,-2.18286 27.28122,-2.69754 16.58239,-0.44541 22.54287,-0.94317 24.20452,-2.02133 3.19484,-2.07296 3.83886,-0.62139 1.44373,3.25402 -3.03112,4.90446 -6.27672,6.2649 -14.36281,6.02038 l -6.93033,-0.20956 3.17662,3.61797 c 3.00122,3.4182 3.15598,3.98325 2.80281,10.23354 -0.86438,15.29732 -13.55587,29.8181197 -30.68988,35.1134097 -7.442,2.29997 -18.79908,2.53439 -24.48947,0.50548 z m 21.2229,-3.09779 c 6.58139,-1.95446 11.93144,-6.72757 15.88862,-14.1752197 7.63522,-14.36996 8.13014,-29.72504 1.11642,-34.63765 -3.16972,-2.22015 -12.27196,-2.09432 -17.38313,0.24032 -11.15835,5.09683 -20.22821,22.35176 -19.31203,36.74014 0.33838,5.3140397 0.86973,6.8396297 3.24607,9.3199997 4.09017,4.26921999 8.34117,4.91871 16.44405,2.51241 z m 210.11034,3.0425 c -1.38652,-1.67065001 -0.76887,-9.15927 1.03315,-12.5263797 1.53487,-2.86793 3.56375,-2.41212 3.51784,0.7903197 -0.0565,3.93838 4.09299,4.27163 8.37061,0.67225 3.09559,-2.6047697 11.45833,-18.3443397 16.03109,-30.1722497 l 2.0297,-5.25 h -2.24201 c -4.11417,0 -9.04887,1.93246 -11.8931,4.6574 -3.37048,3.22913 -4.57431,2.53994 -2.84709,-1.62994 1.68999,-4.07998 7.10875,-8.68288 11.73405,-9.96733 2.08661,-0.57946 13.27968,-1.05147 25.00709,-1.05455 17.2553,-0.005 21.99017,-0.30983 25.29149,-1.63076 2.23395,-0.89385 4.27146,-1.41545 4.5278,-1.1591 0.75383,0.75383 -3.81942,6.93031 -6.72456,9.08197 -1.48031,1.09637 -4.93262,2.19846 -7.72817,2.46708 l -5.05267,0.48549 -5.08978,13.06087 c -6.92292,17.76489 -9.31504,25.3052897 -8.61041,27.1415297 1.63315,4.25592 9.20831,-0.66121 13.22255,-8.5829197 2.71278,-5.35342 5.0807,-6.61647 3.97399,-2.11974 -2.20309,8.9514397 -9.76017,16.2764797 -17.56589,17.0265097 -6.5924,0.63345 -9.97411,-1.4667 -9.97411,-6.19423 0,-3.87376 2.89485,-13.7372297 7.2147,-24.5822797 1.64308,-4.125 3.83538,-9.6375 4.87177,-12.25 l 1.88435,-4.75 h -7.84769 -7.84769 l -4.26807,10.75 c -5.42522,13.66449 -12.09792,27.0157297 -15.55579,31.1251797 -4.78667,5.68863 -12.62815,8.02684 -15.46315,4.61088 z m -79.98843,-3.71184 c 0,-4.13314 0.33713,-4.55518 15.3771,-19.2499997 16.71954,-16.33585 18.95726,-19.65338 20.81386,-30.85762 2.76542,-16.68873 -4.26402,-25.30779 -18.44661,-22.61812 -7.00472,1.32842 -8.08905,2.22373 -9.23036,7.62129 -0.81718,3.86469 -1.47037,4.89411 -3.26766,5.14978 -2.17694,0.30968 -2.24633,0.05764 -2.24633,-8.15918 v -8.47874 l 6.84969,-1.2241 c 9.60404,-1.71634 22.56233,-0.86443 27.77452,1.82596 11.31673,5.8414 14.41355,19.23218 7.68182,33.21651 -2.69764,5.604 -15.59913,19.3812 -29.30603,31.29522 l -6.5,5.6497897 20.25,0.0275 20.25,0.02749 v 5 5 h -25 -25 z M 484.97716,-52.657762 c -3.74197,-1.50443 -6.43043,-6.83735 -5.92939,-11.76176 0.60187,-5.91556 2.92244,-8.20942 8.305,-8.20942 3.50574,0 4.63108,0.47178 5.95879,2.49812 1.58597,2.42049 1.56554,5.95963 -0.0563,9.75188 -0.59969,1.40224 -0.24662,1.75 1.77678,1.75 3.93345,0 5.62364,-0.98828 7.47576,-4.37118 1.56022,-2.84974 1.71302,-8.16834 1.71302,-59.628818 0,-49.79186 0.20749,-57.53375 1.7476,-65.2069 3.01467,-15.01968 7.61949,-24.10773 14.65929,-28.93147 2.79195,-1.91308 4.73888,-2.36163 10.25061,-2.36163 6.27235,0 7.04576,0.24173 9.89742,3.09338 4.47774,4.47775 5.04063,9.95118 1.46087,14.20548 -2.15012,2.55528 -3.45142,3.20114 -6.4497,3.20114 -2.36887,0 -4.36735,-0.67541 -5.41111,-1.82874 -1.80682,-1.99652 -2.25944,-8.67965 -0.65498,-9.67126 1.98195,-1.22491 0.9387,-2.5 -2.04546,-2.5 -3.3413,0 -7.82896,3.69609 -8.14043,6.70455 -0.10223,0.9875 -0.21473,26.77045 -0.25,57.29545 -0.0616,53.338858 -0.15013,55.901888 -2.2732,65.820758 -3.48725,16.29226 -8.89294,25.86438 -16.69813,29.56819 -3.66051,1.73702 -11.70455,2.0424 -15.33646,0.58223 z m 469.24368,-41.5835 c -8.56175,-4.67471 -10.85416,-9.640928 -10.29928,-22.312088 0.52372,-11.95968 3.5449,-18.9492 11.74212,-27.16547 6.82238,-6.83823 13.22943,-9.35504 22.16906,-8.70841 6.83988,0.49476 10.53755,2.72078 13.11718,7.89665 1.38973,2.78841 1.52938,4.19254 0.71157,7.15441 -2.58695,9.36917 -13.69971,15.65663 -32.19065,18.21307 l -4.75,0.65671 v 4.47084 c 0,5.52232 2.04276,10.62273 5.11687,12.77592 3.57642,2.505018 11.89353,2.090158 19.55641,-0.97548 4.61276,-1.84539 6.82564,-2.29491 7.58064,-1.53991 1.3866,1.3866 -1.92902,4.211268 -9.25392,7.883698 -6.89547,3.45713 -18.67545,4.28426 -23.5,1.65006 z m 12.59783,-31.108268 c 3.32281,-1.07315 6.94077,-3.26638 9.61483,-5.82858 3.70806,-3.55295 4.28734,-4.67161 4.28734,-8.27941 0,-12.68297 -14.09902,-9.96868 -20.86987,4.01778 -1.68029,3.47094 -3.34574,7.5483 -3.70101,9.0608 -0.5946,2.53143 -0.408,2.75 2.34764,2.75 1.64646,0 5.39094,-0.77427 8.32107,-1.72059 z m 400.85413,30.467188 c -6.7755,-4.56598 -9.5475,-13.317098 -7.8387,-24.746598 1.9365,-12.95286 9.0814,-24.02109 19.0832,-29.56192 4.7956,-2.6567 6.1893,-2.93808 14.5523,-2.93808 5.0869,0 9.2524,0 9.2567,0 0.083,0 3.9833,-23.22527 3.9879,-23.75 0,-0.4125 -1.0059,-0.75614 -2.2434,-0.76365 -3.8177,-0.0232 -6.75,-1.15391 -6.75,-2.60298 0,-1.08841 2.1992,-1.38337 10.3139,-1.38337 h 10.314 l -7.2233,40.75 c -3.9728,22.4125 -6.9266,41.049398 -6.5639,41.415318 0.3626,0.36593 1.7843,0.81593 3.1593,1 1.4068,0.18833 2.5,0.99059 2.5,1.83468 0,1.19895 -1.7831,1.55838 -8.8843,1.79089 l -8.8844,0.29089 0.66,-4.12723 0.66,-4.127228 -3.0946,2.336338 c -9.9021,7.47596 -16.7017,8.83055 -23.0047,4.58294 z m 18.8379,-7.649278 c 7.4203,-3.80538 8.1555,-5.35739 11.6795,-24.65533 l 3.2268,-17.67098 -3.316,-1.38551 c -1.8237,-0.76202 -4.4698,-1.3855 -5.8802,-1.3855 -10.2322,0 -19.9214,13.07239 -21.2383,28.65436 -0.6941,8.21268 0.2505,12.58507 3.399,15.73356 3.1422,3.14222 6.9509,3.364968 12.1292,0.7094 z m 29.5688,7.394958 c -0.9162,-2.38768 2.1186,-6.239958 13.7806,-17.492278 l 10.8823,-10.5 -5.1294,-11.63935 c -4.6055,-10.45068 -5.4491,-11.73106 -8.2608,-12.53743 -1.7222,-0.49394 -3.1314,-1.55623 -3.1314,-2.36065 0,-1.15936 1.6293,-1.46257 7.8588,-1.46257 h 7.8588 l 3.9794,10 c 2.1886,5.5 4.136,10.15885 4.3275,10.35299 0.7067,0.71655 9.6127,-7.4434 12.2022,-11.1801 l 2.6756,-3.86086 -2.175,-1.65601 c -3.4904,-2.65766 -1.4454,-4.32296 4.8673,-3.96367 5.1021,0.29039 5.4236,0.46616 5.729,3.13237 0.2771,2.41869 -1.1827,4.35922 -10.156,13.5 l -10.4796,10.67528 5.7003,12.97297 c 5.5694,12.674878 5.7866,12.993358 9.4526,13.860348 6.1318,1.45013 3.7754,3.13742 -4.8343,3.46168 -5.5922,0.21061 -8.0661,-0.0755 -8.6479,-1 -0.4483,-0.71225 -2.6744,-5.907498 -4.9469,-11.544998 -2.2724,-5.6375 -4.4342,-10.25 -4.8038,-10.25 -1.3908,0 -14.936,13.88291 -15.6066,15.99564 -0.3922,1.235728 -0.2166,2.689118 0.3993,3.305018 2.6015,2.60154 1.1379,3.69934 -4.932,3.69934 -4.4525,0 -6.1829,-0.3947 -6.61,-1.50772 z M 755.72084,-111.12894 v -2.5 h 78 78 v 2.5 2.5 h -78 -78 z m -171,-18 v -3.5 h 167.5 167.5 v 3.5 3.5 h -167.5 -167.5 z m 451.99996,-19.30908 c 0,-2.23963 1.6207,-4.27961 7.9949,-10.06325 10.5134,-9.53924 13.4691,-14.56822 13.4896,-22.95185 0.013,-5.47498 -0.3092,-6.61163 -2.3452,-8.26208 -2.3606,-1.91359 -6.6517,-2.41908 -10.891,-1.283 -1.4329,0.38399 -2.5406,1.71802 -3.046,3.66833 -1.4196,5.47857 -3.3507,4.54955 -3.0081,-1.44714 l 0.3058,-5.35193 6.0016,-0.85543 c 7.096,-1.01141 13.1754,0.31336 17.1578,3.73882 2.2405,1.92721 2.7537,3.30315 3.0646,8.21575 0.3248,5.1337 -0.018,6.57052 -2.6389,11.05177 -1.7501,2.99257 -6.5379,8.23035 -11.4261,12.5 l -8.4139,7.34909 11.8775,0.28078 11.8774,0.28078 v 2.96922 2.96922 h -15 -15 z m -304.99996,-19.19092 c 0,-1.60323 0.66667,-2 3.36043,-2 1.84823,0 5.44823,-0.28617 8,-0.63592 l 4.63957,-0.63593 v -32.97106 c 0,-25.9613 -0.26575,-32.87097 -1.25,-32.50023 -13.72463,5.16966 -15.63597,5.49433 -14.47088,2.45814 0.59919,-1.56146 23.26057,-14.715 25.35151,-14.715 1.13569,0 1.36937,6.63811 1.36937,38.8999 v 38.89991 l 8.23948,0.85009 c 6.64398,0.68549 8.30413,1.18897 8.57333,2.6001 0.30978,1.6239 -1.25676,1.75 -21.73949,1.75 -21.40665,0 -22.07332,-0.0604 -22.07332,-2 z m 397.06546,0.1223 c -7.7651,-14.5092 -11.768,-44.54559 -10.7443,-80.6223 0.8065,-28.42581 3.5082,-45.13876 9.4565,-58.5 3.3408,-7.50403 3.8569,-4.93753 0.8275,4.11487 -3.8334,11.45494 -5.734,27.78997 -6.3338,54.43542 -0.7771,34.52633 1.6608,61.17529 6.8703,75.09874 2.1443,5.73124 2.0915,9.52371 -0.076,5.47327 z m 172.9345,1.53425 c 0,-0.1889 0.9225,-3.0014 2.0499,-6.25 5.7266,-16.50109 7.3102,-33.95886 6.6809,-73.6485 -0.5326,-33.59098 -1.6282,-43.64193 -6.2619,-57.44558 -2.7894,-8.30958 -2.79,-8.31247 -1.592,-8.31247 1.3727,0 4.9239,9.05028 7.1351,18.18379 3.3772,13.95022 4.988,31.74395 4.988,55.09949 0,22.59519 -0.9554,35.52829 -3.6358,49.21672 -1.7359,8.86452 -6.9902,23.5 -8.4369,23.5 -0.51,0 -0.9273,-0.15455 -0.9273,-0.34345 z m -97.6469,-8.58289 c -9.5813,-5.84233 -4.205,-22.73627 9.4843,-29.80243 6.0472,-3.12146 6.8488,-3.27123 17.5066,-3.27123 6.1431,0 12.7115,-0.4423 14.5964,-0.9829 4.0509,-1.16179 4.5816,-0.86099 3.1618,1.79207 -1.3872,2.59191 -6.3934,4.28258 -10.3424,3.49278 l -3.1418,-0.62835 2.191,2.35176 c 5.9599,6.39712 -1.3644,21.04771 -13.309,26.62179 -6.455,3.01231 -15.5891,3.20568 -20.1469,0.42651 z m 15.3318,-1.14027 c 6.8943,-2.61216 12.289,-11.75489 12.3054,-20.85465 0.012,-6.89635 -1.7686,-9.0812 -7.3953,-9.07215 -8.9953,0.0145 -16.6522,9.90795 -16.9156,21.85651 -0.099,4.49123 0.2606,5.66985 2.212,7.25 2.63,2.12968 5.6664,2.384 9.7935,0.82029 z m -217.6849,-41.93339 c 0,-1.97386 0.6667,-2 51,-2 50.3334,0 51,0.0261 51,2 0,1.97386 -0.6666,2 -51,2 -50.3333,0 -51,-0.0261 -51,-2 z m 138,0 c 0,-1.98268 0.6667,-2 77,-2 76.3334,0 77,0.0173 77,2 0,1.98268 -0.6666,2 -77,2 -76.3333,0 -77,-0.0173 -77,-2 z m 105,-10.82759 c 0,-1.00518 1.1585,-4.67849 2.5743,-8.16292 1.4159,-3.48443 4.2893,-11.09952 6.3855,-16.92241 8.3676,-23.24392 7.7538,-22.08708 11.7191,-22.08708 2.9647,0 3.423,0.28236 2.8405,1.75 -5.22,13.15108 -9.5525,26.02032 -9.3162,27.67304 0.5236,3.6632 4.2808,3.0938 9.1399,-1.38515 4.5683,-4.21088 9.9956,-13.56797 13.2174,-22.78789 1.7134,-4.90317 2.0528,-5.25 5.1371,-5.25 1.8163,0 3.3024,0.3042 3.3024,0.676 0,0.37181 -2.25,6.67948 -5,14.01706 -5.2954,14.12927 -5.9353,17.30694 -3.4853,17.30694 1.301,0 4.6859,-4.34379 5.8445,-7.5 0.2018,-0.55 0.6868,-0.70432 1.0777,-0.34293 0.9791,0.90537 -1.7241,5.8547 -4.7324,8.66445 -1.8022,1.68324 -3.4093,2.23312 -5.845,2 -3.3354,-0.31922 -3.3595,-0.35836 -3.3595,-5.46385 v -5.14233 l -3.3503,3.91855 c -6.2231,7.2784 -13.3962,9.04424 -16.9457,4.17159 l -1.9628,-2.69451 -0.7064,5.13637 c -0.3886,2.82501 -0.4055,6.08457 -0.038,7.24348 0.4039,1.27268 0.033,3.07773 -0.9372,4.55814 -1.9081,2.91213 -5.5599,3.32162 -5.5599,0.62345 z m -177,-10.05578 c 0,-1.06968 3.4981,-2.08435 7.25,-2.10298 l 2.75,-0.0137 v -19.5 c 0,-10.725 -0.17,-19.5 -0.3778,-19.5 -0.2079,0 -1.9934,0.675 -3.9679,1.5 -4.1256,1.72377 -5.6543,1.88232 -5.6543,0.58644 0,-1.13153 13.6467,-9.08644 15.5879,-9.08644 1.1753,0 1.4121,3.8581 1.4121,23 v 23 l 2.75,0.0137 c 3.752,0.0186 7.25,1.0333 7.25,2.10297 0,0.48586 -6.075,0.88338 -13.5,0.88338 -7.425,0 -13.5,-0.39752 -13.5,-0.88337 z m 79,-4.86623 c 0,-0.96228 3.15,-4.73541 7,-8.38474 3.85,-3.64932 7.0013,-7.0245 7.0029,-7.5004 0.01,-2.60466 -5.5348,-13.39931 -7.1432,-13.90979 -3.4737,-1.10254 -1.8784,-2.45547 2.8954,-2.45547 h 4.7551 l 2.3296,6.0078 2.3296,6.00781 2.7833,-1.98194 c 3.5557,-2.53187 6.3561,-6.72481 5.0362,-7.54054 -0.5439,-0.33614 -0.9889,-1.03461 -0.9889,-1.55215 0,-1.06622 6.3086,-1.29907 7.3369,-0.27081 1.0559,1.05592 -2.1239,5.42777 -7.5132,10.32983 l -4.9473,4.5 3.2698,7.78314 c 2.4582,5.85144 3.8386,7.92591 5.5618,8.35841 4.2272,1.06096 2.3465,2.46614 -2.892,2.16071 l -5.184,-0.30226 -2.566,-6.24465 c -1.4113,-3.43455 -3.0371,-6.24705 -3.613,-6.25 -0.5759,-0.003 -2.7709,1.75999 -4.8778,3.91763 -3.1146,3.18968 -3.7097,4.40468 -3.1839,6.5 0.6148,2.44918 0.4475,2.57702 -3.3722,2.57702 -3.1607,0 -4.0191,-0.37369 -4.0191,-1.7496 z m -645.49996,-0.60376 c -3.1306,-0.93891 -4.05454,-1.73728 -4.25091,-3.67315 -0.13799,-1.36042 1.47126,-12.04706 3.57611,-23.74808 l 3.82701,-21.2746 -2.32611,-0.58381 c -4.29819,-1.07878 -2.3772,-2.367 3.52967,-2.367 h 5.85576 l -1.3196,7.75 c -0.72578,4.2625 -1.58132,9.21281 -1.90121,11.0007 l -0.58161,3.2507 3.68499,-2.5007 c 4.21703,-2.86175 9.83494,-3.28935 13.10686,-0.9976 6.77486,4.74529 4.8874,20.86681 -3.35938,28.69385 -5.65191,5.36424 -12.02599,6.79369 -19.84158,4.44969 z m 13.75724,-5.00925 c 8.29586,-7.68834 9.04415,-24.63739 1.08774,-24.63739 -2.54605,0 -9.32867,3.5006 -9.36144,4.83156 -0.009,0.36764 -0.84974,5.26524 -1.86821,10.88356 -1.01846,5.61832 -1.61105,10.45582 -1.31687,10.75 0.29418,0.29418 2.41916,0.53488 4.72218,0.53488 3.01552,0 4.90072,-0.66116 6.7366,-2.36261 z m 493.74272,-9.63739 c 0,-1.93799 0.6667,-2 21.5,-2 20.8334,0 21.5,0.062 21.5,2 0,1.93798 -0.6666,2 -21.5,2 -20.8333,0 -21.5,-0.062 -21.5,-2 z m 184,-4 c 0,-1.93799 0.6667,-2 21.5,-2 20.8334,0 21.5,0.062 21.5,2 0,1.93798 -0.6666,2 -21.5,2 -20.8333,0 -21.5,-0.062 -21.5,-2 z m 128,-17.77906 c 0,-0.97848 2.4447,-4.08022 5.4326,-6.89276 6.5268,-6.1437 8.7347,-11.89775 6.1052,-15.91089 -2.4342,-3.71503 -7.2358,-3.13974 -9.0366,1.08271 -0.8153,1.91147 -0.8709,1.89718 -1.2562,-0.32273 -0.7403,-4.26562 0.3224,-5.17727 6.0351,-5.17727 6.9664,0 9.7199,2.32452 9.7199,8.20562 0,3.73579 -0.6013,4.72906 -6.3333,10.46104 l -6.3333,6.33334 h 6.8333 c 6.1667,0 6.8333,0.19512 6.8333,2 0,1.85185 -0.6666,2 -9,2 -7.9607,0 -9,-0.20543 -9,-1.77906 z"
       id="path14" />
  </g>
</svg>
