<?xml version="1.0" encoding="UTF-8" standalone="no"?>
<svg
   xmlns:dc="http://purl.org/dc/elements/1.1/"
   xmlns:cc="http://creativecommons.org/ns#"
   xmlns:rdf="http://www.w3.org/1999/02/22-rdf-syntax-ns#"
   xmlns:svg="http://www.w3.org/2000/svg"
   xmlns="http://www.w3.org/2000/svg"
   xmlns:sodipodi="http://sodipodi.sourceforge.net/DTD/sodipodi-0.dtd"
   xmlns:inkscape="http://www.inkscape.org/namespaces/inkscape"
   version="1.1"
   id="svg60"
   width="764"
   height="329.90274"
   viewBox="0 0 764 329.90274"
   sodipodi:docname="Captura de pantalla de 2023-01-08 14-41-24.svg"
   inkscape:version="1.0.2 (e86c870879, 2021-01-15)">
  <metadata
     id="metadata66">
    <rdf:RDF>
      <cc:Work
         rdf:about="">
        <dc:format>image/svg+xml</dc:format>
        <dc:type
           rdf:resource="http://purl.org/dc/dcmitype/StillImage" />
        <dc:title></dc:title>
      </cc:Work>
    </rdf:RDF>
  </metadata>
  <defs
     id="defs64" />
  <sodipodi:namedview
     pagecolor="#ffffff"
     bordercolor="#666666"
     borderopacity="1"
     objecttolerance="10"
     gridtolerance="10"
     guidetolerance="10"
     inkscape:pageopacity="0"
     inkscape:pageshadow="2"
     inkscape:window-width="1366"
     inkscape:window-height="711"
     id="namedview62"
     showgrid="false"
     inkscape:zoom="0.67493473"
     inkscape:cx="742.82646"
     inkscape:cy="294.02217"
     inkscape:window-x="0"
     inkscape:window-y="0"
     inkscape:window-maximized="1"
     inkscape:current-layer="g68" />
  <g
     inkscape:groupmode="layer"
     inkscape:label="Image"
     id="g68"
     transform="translate(346.82646,102.52217)">
    <path
       style="fill:#000000"
       d="m -278.82646,225.31399 c -7.64944,-5.11212 -11.28217,-21.47396 -7.58864,-34.17926 3.32063,-11.42258 10.95859,-16.50671 22.74342,-15.13894 l 5.84522,0.67841 v 4.90182 c 0,3.72621 -0.36574,4.90181 -1.525,4.90181 -0.88414,0 -1.7697,-1.2235 -2.10729,-2.91142 -0.36795,-1.83977 -1.37099,-3.12305 -2.725,-3.48635 -8.65993,-2.32358 -14.01803,2.52324 -15.58926,14.1017 -0.63861,4.70592 -0.53026,5.29869 0.8578,4.69283 0.87381,-0.3814 3.74401,-1.1692 6.37822,-1.75067 9.53465,-2.10466 16.56573,2.79153 17.46619,12.16284 0.60059,6.25048 -0.96531,11.05969 -4.79613,14.72984 -2.5033,2.39831 -4.01612,2.9316 -9.22688,3.25255 -5.2601,0.32399 -6.7788,0.0189 -9.73265,-1.95516 z m 13.54545,-3.29071 c 2.48147,-2.48146 3.01959,-5.20144 2.58091,-13.04545 -0.33493,-5.98909 -3.9579,-8.88876 -10.03625,-8.03261 -8.28304,1.16669 -8.25847,1.14609 -7.59061,6.3655 1.08256,8.46046 2.72722,13.20029 5.27596,15.20513 3.36097,2.64374 6.80745,2.46998 9.76999,-0.49257 z m 79.44415,-35.79545 c -5.64646,-13.8875 -10.34825,-25.35672 -10.44842,-25.48714 -0.10017,-0.13043 -2.10547,1.17728 -4.4562,2.90604 -3.46602,2.54894 -4.44236,2.87736 -5.16421,1.73714 -0.48958,-0.77332 -0.8817,-1.63104 -0.87137,-1.90604 0.0438,-1.16535 14.40749,-10.9405 15.06742,-10.25404 0.3987,0.41472 4.75302,10.85217 9.67626,23.19433 6.16601,15.45765 9.14173,21.83654 9.56316,20.5 0.33649,-1.06716 6.64226,-26.60106 14.01282,-56.742 7.37057,-30.14094 13.71513,-55.115938 14.09904,-55.499998 0.38391,-0.38406 37.33564,-0.81854 82.114957,-0.96552 l 81.41694,-0.26723 v 2.51132 2.51131 l -80.69753,0.25592 -80.697517,0.25591 -8.80148,35.999998 c -4.84082,19.8 -11.57618,47.3625 -14.96748,61.25 -5.06244,20.73091 -6.47151,25.25 -7.87305,25.25 -1.29327,0 -4.19552,-6.12041 -11.97334,-25.25 z m -160.9896,18.25 c 0,-1.93939 0.66666,-2 22,-2 21.33333,0 22,0.0606 22,2 0,1.93939 -0.66667,2 -22,2 -21.33334,0 -22,-0.0606 -22,-2 z m 301.035177,-0.93426 c -1.42375,-2.66032 -1.30182,-4.92692 0.55882,-10.3876 0.95738,-2.80975 2.19884,-4.67814 3.10841,-4.67814 1.09665,0 1.34924,0.65807 0.91566,2.38558 -1.42702,5.68571 5.37875,5.65995 10.38276,-0.0393 4.35986,-4.96561 18.06796,-33.61082 16.72639,-34.95239 -1.17243,-1.17243 -11.42656,1.90194 -13.74173,4.12001 -2.34863,2.25014 -4.98549,3.29008 -4.98549,1.96623 0,-1.52841 5.27414,-8.53324 7.6947,-10.21971 5.41967,-3.77601 8.9921,-4.26042 31.4195804,-4.26042 17.2047396,0 22.7943896,-0.33223 26.4455896,-1.57185 2.54637,-0.86451 4.8155,-1.38611 5.04251,-1.1591 0.84235,0.84235 -4.26326,7.2597 -7.52406,9.45715 -2.30344,1.55229 -4.84408,2.2738 -8.00668,2.2738 h -4.63259 l -6.80027,17.75 c -7.3417296,19.16333 -8.5861196,25.54297 -5.0801696,26.04447 2.9821,0.42657 7.1135596,-3.24388 10.5951396,-9.4129 1.67044,-2.95986 3.6458,-5.38157 4.38969,-5.38157 3.71428,0 -5.92502,15.17724 -11.5278396,18.15076 -1.96243,1.0415 -5.53479,1.84924 -8.17857,1.84924 -4.86431,0 -7.19073,-1.38832 -8.32734,-4.96946 -0.93144,-2.93472 2.12799,-13.8535 8.12519002,-28.99794 2.94739998,-7.44293 5.36029998,-14.11403 5.36200998,-14.82466 0.002,-0.96956 -1.91554,-1.21917 -7.68359,-1 l -7.6867,0.29206 -4.8340604,12 c -7.82409,19.42238 -12.37921,27.8397 -17.81969,32.92863 -4.1214,3.85508 -5.51513,4.57137 -8.89483,4.57137 -2.93879,0 -4.28374,-0.51588 -5.04284,-1.93426 z m -82.035177,-3.51894 c 0,-4.44278 0.031,-4.48127 13.25,-16.45941 7.2875,-6.60343 14.52008,-13.61628 16.072407,-15.58413 10.44231,-13.23746 11.72057,-35.24064 2.33675,-40.22332 -3.76723,-2.00035 -12.598867,-2.20835 -17.850327,-0.42039 -3.40301,1.15861 -3.77937,1.68156 -4.8209,6.69859 -0.99348,4.78558 -1.42267,5.44186 -3.55883,5.44186 -2.37982,0 -2.4291,-0.17084 -2.4291,-8.42054 v -8.42055 l 2.83564,-0.62281 c 6.63998,-1.45838 17.72814,-2.1107 23.685957,-1.39345 14.15478,1.70407 20.87353,8.80869 20.8038,21.9986 -0.0695,13.15656 -6.79855,22.75852 -29.684787,42.35875 l -10.50887,9 20.934127,0.26989 20.93413,0.26989 v 4.98011 4.98011 h -25.999997 -26 z m -200.61189,-52.52687 c -6.44622,-2.60457 -8.79741,-13.70154 -3.93357,-18.56538 3.15933,-3.15934 8.67087,-3.32914 11.64135,-0.35866 2.12401,2.12401 2.32116,6.91539 0.45896,11.15411 -0.63259,1.4399 -0.25769,1.75 2.11565,1.75 1.58647,0 3.85017,-0.6764 5.03046,-1.5031 4.44873,-3.11601 4.62161,-5.61314 4.74205,-68.496898 0.12316,-64.2999201 0.16469,-64.8700001 5.78275,-79.3695201 4.52605,-11.6811699 13.5776,-18.4763209 23.17116,-17.3949879 8.86343,0.999037 14.53252,8.692208 11.60803,15.7525479 -3.63433,8.77406001 -16.00495,7.7785 -16.00495,-1.2880399 0,-1.815 0.55874,-3.85874 1.24164,-4.54164 0.98885,-0.98886 0.93796,-1.43364 -0.25,-2.18469 -2.40138,-1.5182 -3.7617,-1.15123 -7.22587,1.94928 l -3.26577,2.92295 0.35528,50.82705 c 0.36357,52.01355 -0.30243,67.534818 -3.50873,81.770768 -3.15812,14.022 -9.41757,24.0167 -17.03421,27.19914 -3.59096,1.5004 -11.64066,1.70378 -14.92423,0.37707 z M 63.594937,103.633 c -8.08441,-3.773838 -10.88411,-10.097278 -10.19368,-23.023648 0.56793,-10.63303 3.55019,-17.84161 10.41943,-25.18538 7.07573,-7.56452 12.11604,-10.16714 20.76497,-10.72219 5.97361,-0.38337 7.91184,-0.0993 11.37369,1.66678 6.992603,3.56736 9.239633,11.275 5.212583,17.87995 -3.916833,6.42417 -17.275973,12.55735 -30.322283,13.92096 -6.94634,0.72604 -7.46102,1.53462 -5.85389,9.19671 1.63399,7.79006 4.45405,10.35935 11.96695,10.90278 4.89307,0.35393 7.08822,-0.0834 13.1034,-2.61074 6.20118,-2.60546 7.31029,-2.81532 7.82263,-1.48018 0.7242,1.88723 -2.16316,4.27951 -9.7152,8.049378 -7.26507,3.62662 -18.45034,4.26627 -24.5786,1.40558 z m 15.04117,-31.899128 c 12.03192,-4.64196 17.43145,-16.00325 9.93885,-20.91259 -4.64716,-3.04494 -11.46208,-0.0225 -16.51771,7.32557 -2.4041,3.49425 -6.88371,13.97209 -6.88371,16.10107 0,0.82239 9.33124,-0.92016 13.46257,-2.51405 z M 318.17354,103.30826 c -1.925,-1.29062 -4.54275,-4.367938 -5.81723,-6.838498 -2.04397,-3.96223 -2.27611,-5.61219 -1.96862,-13.99193 0.29825,-8.12811 0.80105,-10.4646 3.48174,-16.17961 4.1217,-8.7871 10.06907,-15.08706 17.86655,-18.92574 5.81804,-2.86422 6.95933,-3.07765 14.70496,-2.74993 l 8.39737,0.35528 1.81296,-11 c 0.99713,-6.05 2.00352,-11.51772 2.23642,-12.15048 0.25609,-0.69579 -1.28341,-1.43301 -3.89535,-1.86535 -5.36199,-0.88755 -5.87098,-1.18461 -5.16814,-3.0162 0.44274,-1.15374 2.68095,-1.46797 10.45633,-1.46797 9.36223,0 9.89301,0.11192 9.89301,2.08595 0,1.14728 -3.15,19.62215 -7,41.05528 -3.85,21.43312 -7,39.38587 -7,39.89499 0,0.50912 1.2375,1.22147 2.75,1.582988 3.83749,0.91724 4.24009,1.24305 3.59934,2.91282 -0.4374,1.13984 -2.57077,1.46797 -9.54423,1.46797 h -8.98091 l 0.6943,-4.10949 0.69429,-4.109488 -6.08954,4.294458 c -5.10678,3.60141 -7.02021,4.35958 -11.85639,4.69799 -4.80536,0.33625 -6.35041,0.0123 -9.26686,-1.94304 z m 19.5,-7.726288 c 7.8262,-3.62342 8.87056,-5.72752 12.3715,-24.9252 1.73729,-9.52658 2.90802,-17.72667 2.60162,-18.22243 -0.3064,-0.49576 -2.29478,-1.42201 -4.41864,-2.05833 -11.41052,-3.41868 -21.96052,6.6245 -25.71086,24.47573 -3.57132,16.99908 3.20288,26.264518 15.15638,20.73023 z m 30.21228,7.145858 c 0.56611,-1.5253 22.0754,-32.752458 32.13482,-46.653288 l 3.54829,-4.90329 -8.4477,0.55583 c -4.64623,0.30571 -9.27903,0.88966 -10.29511,1.29766 -1.01609,0.40801 -2.68759,2.70187 -3.71447,5.09746 -1.04556,2.43922 -2.54265,4.35563 -3.40257,4.35563 -1.84684,0 -1.85133,-0.12134 -0.33199,-8.98144 l 1.20355,-7.01856 h 19.29645 c 16.46455,0 19.29645,0.21959 19.29645,1.4963 0,0.82297 -7.8333,12.63547 -17.40733,26.25 l -17.40734,24.7537 6.65734,0.2621 c 3.66153,0.14415 8.90733,-0.30585 11.65733,-1 4.47862,-1.13049 5.26069,-1.75711 7.5,-6.00921 1.58018,-3.00052 3.16866,-4.74817 4.31739,-4.75 1.2643,-0.002 1.65795,0.52969 1.2935,1.74711 -0.28813,0.9625 -1.27317,4.7875 -2.18896,8.5 l -1.66508,6.749998 h -21.34704 c -19.91128,0 -21.30336,-0.1177 -20.69753,-1.75 z M -219.82646,67.977832 v -3.5 h 123.499997 123.5 v 3.5 3.5 h -123.5 -123.499997 z m 369,-19.26762 c 0,-2.20132 1.82068,-4.44669 8.89798,-10.97354 10.49908,-9.68248 13.10887,-14.23423 13.08671,-22.82456 -0.0168,-6.5200601 -0.43703,-7.5834301 -3.66895,-9.2845801 -5.53572,-2.91377 -13.31574,-0.07988 -13.31574,4.8503001 0,1.11111 -0.66667,2 -1.5,2 -1.13458,0 -1.5,-1.22571 -1.5,-5.0313801 0,-6.06874 0.54995,-6.3897 11,-6.4198 11.87834,-0.0342 17.01148,4.09012 16.99062,13.6515201 -0.0142,6.52273 -4.50502,13.34401 -14.95119,22.71011 l -9.02239,8.08955 h 12.49148 12.49148 v 3 3 h -15.5 -15.5 z m -266,-20.1141 c 0,-1.63918 1.09561,-1.97299 8.5,-2.58977 l 8.499997,-0.70805 V -8.1119381 c 0,-18.3756259 -0.337497,-33.4123979 -0.749997,-33.4150469 -0.4125,-0.0026 -4.02329,1.186562 -8.02397,2.642692 -7.26577,2.64452 -8.93834,2.660753 -7.94691,0.07713 0.76384,-1.990521 23.550737,-14.715005 26.351507,-14.715005 h 2.36937 v 39.3999 39.39991 l 8.23948,0.85009 c 6.64398,0.68549 8.30413,1.18897 8.57333,2.6001 0.31014,1.62575 -1.30438,1.75 -22.73949,1.75 -21.923217,0 -23.073317,-0.0938 -23.073317,-1.88172 z m 349,-30.8588401 c 0,-0.44018 4.68543,-7.54112 10.41206,-15.7798799 11.11478,-15.990535 11.16609,-16.243224 3.05121,-15.026323 -3.60791,0.541039 -4.46785,1.121148 -5.33057,3.595937 -1.41091,4.047354 -3.57467,3.910693 -2.7577,-0.174174 0.34375,-1.71875 0.625,-3.96875 0.625,-5 0,-1.729167 0.93333,-1.875 12,-1.875 6.6,0 12,0.255719 12,0.568265 0,0.312546 -4.75318,7.512546 -10.56262,15.999995 l -10.56261,15.4317399 h 3.43761 c 6.88712,0 9.84665,-1.15521 11.90737,-4.64788 2.68523,-4.5511199 3.83634,-3.3855499 2.36387,2.39355 l -1.21137,4.75433 -12.68612,0.27988 c -6.97737,0.15393 -12.68613,-0.08027 -12.68613,-0.52044 z m -119,-21.2594399 c 0,-1.974603 0.66667,-2 52.5,-2 51.83333,0 52.5,0.0254 52.5,2 0,1.974603 -0.66667,2 -52.5,2 -51.83333,0 -52.5,-0.0254 -52.5,-2 z m 156,-17.723095 c 0,-0.947702 2.77328,-4.52125 6.16285,-7.941218 5.79894,-5.850944 6.18991,-6.544379 6.62104,-11.743197 0.43038,-5.189822 0.29914,-5.597537 -2.16286,-6.719297 -3.10141,-1.4131 -7.62103,0.132001 -7.62103,2.605368 0,0.836792 -0.47851,1.521439 -1.06336,1.521439 -0.5973,0 -0.92601,-1.424444 -0.75,-3.25 0.30977,-3.212793 0.37914,-3.253432 6.05904,-3.549775 5.01584,-0.261696 6.06379,0.01833 8.25,2.204546 4.87555,4.87555 3.03988,10.96133 -5.83927,19.358856 l -5.53669,5.236373 h 7.44014 c 6.77347,0 7.44014,0.179208 7.44014,2 0,1.859649 -0.66667,2 -9.5,2 -8.32444,0 -9.5,-0.213221 -9.5,-1.723095 z m -88,-3.160274 c 0,-1.121416 3.5523,-2.08534 7.75,-2.102976 l 3.25,-0.01365 v -20 c 0,-11 -0.23945,-20 -0.53212,-20 -0.29266,0 -2.14762,0.675 -4.12212,1.5 -4.36995,1.825881 -5.35081,1.871898 -5.32879,0.25 0.0188,-1.385373 13.02167,-8.75 15.44885,-8.75 1.33538,0 1.53418,3.045096 1.53418,23.5 v 23.5 l 2.75,0.01365 c 3.75192,0.01863 7.25,1.033302 7.25,2.102976 0,0.485858 -6.3,0.883374 -14,0.883374 -7.7,0 -14,-0.397516 -14,-0.883369 z m -495.25,-5.278912 c -1.69799,-0.620159 -2.75,-1.73978 -2.75,-2.926742 0,-1.749713 6.34487,-39.381378 7.52626,-44.638556 0.3926,-1.747026 -0.0416,-2.363666 -2.01284,-2.858413 -4.50421,-1.13048 -2.6504,-2.41401 3.48658,-2.41401 3.3,0 5.996,0.3375 5.99112,0.75 -0.005,0.4125 -0.83146,5.554403 -1.83684,11.426448 l -1.82797,10.676446 3.24388,-2.474232 c 9.73613,-7.426102 19.33344,-1.280732 18.16274,11.629992 -0.82955,9.148447 -6.93806,18.249451 -14.04803,20.930014 -3.4681,1.307525 -12.2305,1.252016 -15.9349,-0.100947 z m 13.59887,-3.342286 c 4.36876,-2.085949 7.52927,-7.159985 8.78807,-14.108799 1.25968,-6.953667 0.16437,-10.836594 -3.53189,-12.520723 -2.01598,-0.918541 -3.1738,-0.701278 -6.72689,1.26229 l -4.29179,2.371799 -1.74275,9.5 c -2.23092,12.161151 -2.24131,13.749424 -0.0936,14.310674 3.19275,0.834354 4.41968,0.702723 7.59887,-0.815241 z m 420.65113,-12.495433 c 0,-1.939394 0.66667,-2 22,-2 21.33333,0 22,0.06061 22,2 0,1.939394 -0.66667,2 -22,2 -21.33333,0 -22,-0.06061 -22,-2 z"
       id="path72" />
  </g>
</svg>
