<?xml version="1.0" encoding="UTF-8" standalone="no"?>
<svg
   xmlns:dc="http://purl.org/dc/elements/1.1/"
   xmlns:cc="http://creativecommons.org/ns#"
   xmlns:rdf="http://www.w3.org/1999/02/22-rdf-syntax-ns#"
   xmlns:svg="http://www.w3.org/2000/svg"
   xmlns="http://www.w3.org/2000/svg"
   xmlns:sodipodi="http://sodipodi.sourceforge.net/DTD/sodipodi-0.dtd"
   xmlns:inkscape="http://www.inkscape.org/namespaces/inkscape"
   version="1.1"
   id="svg2"
   width="682.70447"
   height="637.30463"
   viewBox="0 0 682.70447 637.30463"
   sodipodi:docname="integ.svg"
   inkscape:version="1.0.2 (e86c870879, 2021-01-15)">
  <metadata
     id="metadata8">
    <rdf:RDF>
      <cc:Work
         rdf:about="">
        <dc:format>image/svg+xml</dc:format>
        <dc:type
           rdf:resource="http://purl.org/dc/dcmitype/StillImage" />
        <dc:title></dc:title>
      </cc:Work>
    </rdf:RDF>
  </metadata>
  <defs
     id="defs6" />
  <sodipodi:namedview
     pagecolor="#ffffff"
     bordercolor="#666666"
     borderopacity="1"
     objecttolerance="10"
     gridtolerance="10"
     guidetolerance="10"
     inkscape:pageopacity="0"
     inkscape:pageshadow="2"
     inkscape:window-width="1366"
     inkscape:window-height="711"
     id="namedview4"
     showgrid="false"
     inkscape:zoom="0.62988279"
     inkscape:cx="210.82791"
     inkscape:cy="610.62327"
     inkscape:window-x="0"
     inkscape:window-y="0"
     inkscape:window-maximized="1"
     inkscape:current-layer="g10" />
  <g
     inkscape:groupmode="layer"
     inkscape:label="Image"
     id="g10"
     transform="translate(-130.50543,269.28993)">
    <path
       style="fill:#0000ff;stroke-width:1"
       d="m 426.00877,366.08586 c -7.90718,-2.81857 -14.429,-8.84582 -18.83666,-17.40825 l -4,-7.77048 -0.44176,-37.76519 -0.44176,-37.76519 H 289.791 177.2934 l -8.58738,-3.11705 c -16.7481,-6.07923 -29.0043,-18.33543 -35.08354,-35.08354 l -3.11705,-8.58738 V -1.9565878 -222.50196 l 3.11705,-8.58738 c 6.07924,-16.7481 18.33544,-29.0043 35.08354,-35.08354 l 8.58738,-3.11705 265.60603,0.0144 c 284.47563,0.0155 269.95053,-0.31428 283.16702,6.42827 14.96444,7.63429 27.26507,25.35358 29.80613,42.93634 0.68526,4.74153 1.25798,46.48727 1.27272,92.76832 l 0.0268,84.147352 15.00001,0.67739 c 9.01354,0.40704 16.93672,1.49381 19.85274,2.72308 7.3416,3.09489 15.1627,10.88768 18.34008,18.27371 l 2.84495,6.61326 -0.35223,179.708938 c -0.39573,201.91229 0.63254,182.89405 -10.47122,193.66988 -10.31264,10.00808 2.81748,9.37917 -194.45185,9.31386 -146.82119,-0.0487 -177.63709,-0.37028 -181.92582,-1.89904 z m 360.42231,-24.63473 c 1.42577,-1.42578 2.94932,-4.57578 3.38568,-7 0.43636,-2.42424 0.61983,-81.34114 0.40771,-175.37089 l -0.38568,-170.963158 -3.03688,-3.03684 -3.03688,-3.03683 -174.53845,-0.34796 -174.53843,-0.34796 -3.75802,3.23237 -3.75802,3.23239 -0.37055,172.448908 c -0.2038,94.84691 -0.0385,173.81419 0.36724,175.48285 0.4058,1.66865 1.92255,4.21865 3.37056,5.66666 2.59475,2.59475 5.1634,2.63275 177.96609,2.63275 171.87887,0 175.38442,-0.0511 177.92563,-2.59229 z M 480.50544,319.81521 c -18.15736,-6.83402 -31.33333,-24.24447 -31.33333,-41.40324 0,-17.55218 20.67493,-17.794 23.26347,-0.27211 1.27913,8.65847 4.71189,13.98263 11.46104,17.77587 10.39852,5.84428 24.88496,1.90724 30.10173,-8.1809 1.49285,-2.88686 3.84919,-21.28182 7.97121,-62.22823 3.21854,-31.97141 5.85578,-58.82232 5.86055,-59.66865 0.007,-1.06545 -5.63097,-1.68707 -18.32467,-2.02073 -20.30378,-0.53374 -23.3976,-1.56514 -25.70977,-8.57107 -1.67257,-5.06795 -0.0492,-10.05296 4.25563,-13.06819 2.45836,-1.72189 6.83232,-2.13455 22.6257,-2.13455 h 19.5782 l 0.80367,-6.33333 c 0.44201,-3.48333 2.62669,-24.93333 4.85487,-47.666668 2.22816,-22.73333 4.96032,-44.55465 6.07144,-48.49181 7.78556,-27.5873098 39.18153,-41.1017098 64.94776,-27.9567598 7.11497,3.6297798 16.61256,13.4465698 19.64772,20.3080598 7.05044,15.93868 5.86565,27.07975 -3.19787,30.07098 -8.74038,2.88459 -14.03292,-2.08047 -16.22469,-15.22079 -1.17047,-7.01723 -9.96311,-15.95185 -16.96623,-17.24023 -5.93357,-1.09158 -14.05722,0.86523 -18.67656,4.4988 -6.44061,5.06619 -7.38313,9.53136 -12.30017,58.27195 -2.59034,25.676858 -4.7097,47.376978 -4.7097,48.222498 0,1.1021 6.58454,1.5373 23.25899,1.5373 22.5482,0 23.37127,0.0965 26.93334,3.16055 5.06952,4.36063 5.08969,11.49578 0.0468,16.54248 l -3.62758,3.63031 -24.52832,0.43769 -24.52832,0.4377 -0.79191,6.22897 c -0.43554,3.42593 -3.23242,30.78219 -6.21529,60.79167 -6.24637,62.84233 -6.80347,65.20036 -18.06456,76.46145 -9.60737,9.60736 -16.89776,12.69474 -31.14977,13.19147 -6.23334,0.21725 -13.13334,-0.28247 -15.33334,-1.11049 z m 134.43833,-9.72643 c -4.82623,-2.08687 -7.10499,-5.57433 -7.10499,-10.87363 0,-2.97098 4.44251,-8.1377 23.31748,-27.11865 l 23.31748,-23.44839 -21.93304,-21.90283 c -12.06317,-12.04654 -22.62883,-23.5826 -23.47924,-25.63568 -3.47456,-8.38832 6.05863,-18.01092 14.41457,-14.54977 2.10566,0.87219 13.68474,11.45567 25.73128,23.51884 l 21.90283,21.93304 23.44839,-23.31748 c 16.35285,-16.26155 24.3508,-23.31748 26.43053,-23.31748 7.83227,0 13.65704,6.86437 12.43464,14.65399 -0.3335,2.12524 -8.61241,11.48517 -22.99712,26 l -22.47602,22.67935 22.61077,22.75304 c 21.15237,21.28544 22.61079,23.07388 22.61079,27.72726 0,6.7842 -4.7355,11.5197 -11.5197,11.5197 -4.65405,0 -6.44086,-1.45799 -27.75962,-22.65096 l -22.7854,-22.65095 -19.96765,20.07509 c -26.49388,26.63647 -28.43982,27.9593 -36.19598,24.60551 z M 402.50544,226.0762 v -16.63389 l -99.76492,-0.36611 -99.76491,-0.36612 -5.53124,-3.66097 c -11.16445,-7.38945 -10.22796,8.07296 -10.62635,-175.452848 -0.23377,-107.6918 0.10755,-164.828132 1.00452,-168.159272 1.79776,-6.67634 5.788,-11.54952 12.08914,-14.76412 5.07299,-2.58804 8.90971,-2.62947 243.56144,-2.62947 229.66138,0 238.57648,0.0908 243.01973,2.4737 2.53685,1.36052 6.42749,4.71542 8.64587,7.45534 l 4.0334,4.98166 0.38025,49.211322 0.38025,49.21132 h 16.61975 16.61975 v -86.424672 c 0,-96.27067 0.0428,-95.75949 -8.82668,-105.57687 -2.57191,-2.84679 -7.48804,-6.56104 -10.92475,-8.25389 l -6.24857,-3.07791 H 444.50544 c -212.28011,0 -263.60562,0.33289 -267.56141,1.73533 -8.69425,3.08237 -15.23439,8.902 -19.29304,17.16759 l -3.81223,7.76375 -0.35731,212.5691522 c -0.23803,141.6024078 0.10097,215.0499678 1.01543,220.0000078 2.62709,14.22081 12.96512,25.51713 25.63808,28.01463 3.13709,0.61822 54.45381,1.18978 114.03714,1.27013 l 108.33334,0.14609 z M 202.40287,-193.18736 c -4.93334,-4.93334 -5.20999,-10.91123 -0.71307,-15.40814 4.01603,-4.01603 9.76629,-5.09604 23.95935,-4.49999 12.00922,0.50433 15.84469,2.3598 18.33388,8.86934 1.47479,3.85675 -1.50478,11.4767 -5.27706,13.49557 -1.48054,0.79236 -9.37749,1.44065 -17.54878,1.44065 -14.64299,0 -14.913,-0.0561 -18.75432,-3.89743 z m 69.05142,1.21452 c -7.09834,-5.58355 -5.2703,-16.88309 3.2096,-19.8392 5.4762,-1.90901 24.87356,-1.90901 30.34976,0 8.47989,2.95611 10.30793,14.25565 3.2096,19.8392 -2.95777,2.32658 -5.39947,2.68291 -18.38448,2.68291 -12.98501,0 -15.42671,-0.35633 -18.38448,-2.68291 z m 69.25955,1.17286 c -1.35204,-0.78592 -3.3101,-3.46767 -4.35123,-5.95945 -2.63836,-6.3145 0.0721,-12.8811 6.19836,-15.01673 6.57881,-2.29339 48.18762,-2.00506 53.87998,0.37335 8.28786,3.4629 9.89414,11.8217 3.50038,18.21545 l -3.89742,3.89743 -26.43591,-0.0405 c -16.31004,-0.025 -27.3775,-0.58788 -28.89416,-1.4695 z m 89.31963,-1.75962 c -4.87688,-4.51974 -4.91734,-12.29353 -0.0876,-16.83124 l 3.44048,-3.23242 126.22621,-0.39705 c 87.98903,-0.27676 127.7385,0.0417 131.21846,1.0512 3.33502,0.96748 5.65872,2.7371 7,5.33083 2.95099,5.70658 2.47638,9.08486 -1.88968,13.45092 l -3.89742,3.89743 H 562.80271 433.56151 Z M 289.1721,163.37675 v -22 h -39.33333 -39.33334 v 22 22 h 39.33334 39.33333 z m 113.33334,0 v -22 H 357.83877 313.1721 v 22 22 h 44.66667 44.66667 z M 289.1721,94.710082 v -22.66667 h -39.33333 -39.33334 v 22.66667 22.666668 h 39.33334 39.33333 z m 113.33334,0 V 72.043412 H 357.83877 313.1721 v 22.66667 22.666668 h 44.66667 44.66667 z m -113.33334,-68 V 4.0434122 h -39.33333 -39.33334 v 22.6666698 22.66666 h 39.33334 39.33333 z m 113.33334,0 V 4.0434122 H 357.83877 313.1721 v 22.6666698 22.66666 h 44.66667 44.66667 z M 289.1721,-41.956588 v -22 h -39.33333 -39.33334 v 22 22 h 39.33334 39.33333 z m 117.33334,20.18772 c 0,-3.28801 10.58184,-13.90781 17.01501,-17.07605 l 6.31832,-3.11167 123.00001,-0.3668 123,-0.36679 v -10.63321 -10.6332 H 494.50544 313.1721 v 22 22 h 46.66667 c 38.44423,0 46.66667,-0.31932 46.66667,-1.81228 z M 289.1721,-109.95659 v -22 h -39.33333 -39.33334 v 22 22.000002 h 39.33334 39.33333 z m 386.66668,0 v -22 H 494.50544 313.1721 v 22 22.000002 h 181.33334 181.33334 z"
       id="path14" />
  </g>
</svg>
